<svg id="svg" version="1.1" width="400" height="377.77777777777777" xmlns="http://www.w3.org/2000/svg" xmlns:xlink="http://www.w3.org/1999/xlink" style="display: block;"><g id="svgg"><path id="path0" d="M172.779 8.696 L 172.779 17.391 167.837 17.391 C 161.225 17.391,161.815 16.246,161.815 29.085 L 161.815 39.698 156.562 39.698 C 150.173 39.698,150.851 38.304,150.851 51.449 L 150.851 62.004 145.778 62.004 C 142.987 62.004,140.435 62.107,140.107 62.233 C 139.581 62.435,139.509 63.758,139.509 73.197 L 139.509 83.932 134.567 83.932 C 127.955 83.932,128.544 82.787,128.544 95.625 L 128.544 106.238 101.296 106.238 C 78.185 106.238,73.966 106.320,73.508 106.778 C 73.093 107.193,72.968 108.506,72.968 112.447 L 72.968 117.576 39.792 117.673 L 6.616 117.769 6.511 123.157 L 6.406 128.544 3.203 128.544 L 0.000 128.544 0.000 150.473 L 0.000 172.401 3.214 172.401 L 6.427 172.401 6.427 177.285 C 6.427 183.919,5.906 183.365,12.139 183.365 L 17.391 183.365 17.391 188.496 C 17.391 195.042,17.066 194.707,23.413 194.707 L 28.355 194.707 28.355 199.649 C 28.355 205.996,28.020 205.671,34.567 205.671 L 39.698 205.671 39.698 210.802 C 39.698 217.348,39.372 217.013,45.720 217.013 L 50.662 217.013 50.662 221.955 C 50.662 228.285,50.354 227.977,56.684 227.977 L 61.626 227.977 61.626 233.230 C 61.626 239.472,61.044 238.941,67.895 238.941 L 72.968 238.941 72.968 244.072 C 72.968 250.619,72.643 250.284,78.990 250.284 C 82.033 250.284,83.932 250.429,83.932 250.662 C 83.932 250.894,82.052 251.040,79.048 251.040 C 76.362 251.040,73.895 251.143,73.566 251.269 C 73.027 251.476,72.968 254.759,72.968 284.540 L 72.968 317.580 67.837 317.580 C 63.894 317.580,62.581 317.705,62.166 318.120 C 61.707 318.579,61.626 323.125,61.626 348.366 L 61.626 378.072 89.225 378.072 L 116.824 378.072 116.824 375.236 L 116.824 372.401 127.559 372.401 C 136.999 372.401,138.321 372.329,138.523 371.803 C 138.649 371.474,138.752 369.007,138.752 366.321 L 138.752 361.437 149.365 361.437 C 162.227 361.437,161.059 362.057,161.059 355.225 L 161.059 350.095 171.614 350.095 C 184.758 350.095,183.365 350.772,183.365 344.383 L 183.365 339.130 200.378 339.130 L 217.391 339.130 217.391 344.383 C 217.391 350.772,215.998 350.095,229.142 350.095 L 239.698 350.095 239.698 355.225 C 239.698 362.057,238.529 361.437,251.391 361.437 L 262.004 361.437 262.004 366.321 C 262.004 369.007,262.107 371.474,262.233 371.803 C 262.435 372.329,263.758 372.401,273.197 372.401 L 283.932 372.401 283.932 375.236 L 283.932 378.072 311.342 378.072 L 338.752 378.072 338.752 348.424 C 338.752 332.118,338.649 318.507,338.523 318.178 C 338.329 317.673,337.482 317.580,333.041 317.580 L 327.788 317.580 327.788 284.540 C 327.788 254.759,327.729 251.476,327.190 251.269 C 326.861 251.143,324.394 251.040,321.708 251.040 C 318.704 251.040,316.824 250.894,316.824 250.662 C 316.824 250.429,318.724 250.284,321.766 250.284 C 328.112 250.284,327.788 250.617,327.788 244.083 L 327.788 238.962 333.176 238.857 L 338.563 238.752 338.668 233.365 L 338.773 227.977 343.894 227.977 C 350.428 227.977,350.095 228.301,350.095 221.955 L 350.095 217.013 355.036 217.013 C 361.384 217.013,361.059 217.348,361.059 210.802 L 361.059 205.671 366.190 205.671 C 372.736 205.671,372.401 205.996,372.401 199.649 L 372.401 194.707 377.343 194.707 C 383.690 194.707,383.365 195.042,383.365 188.496 L 383.365 183.365 388.307 183.365 C 394.637 183.365,394.329 183.673,394.329 177.343 L 394.329 172.401 397.164 172.401 L 400.000 172.401 400.000 150.473 L 400.000 128.544 397.164 128.544 L 394.329 128.544 394.329 123.292 C 394.329 118.851,394.237 118.004,393.731 117.810 C 393.402 117.684,378.430 117.580,360.461 117.580 L 327.788 117.580 327.788 112.449 C 327.788 108.507,327.663 107.193,327.248 106.778 C 326.790 106.320,322.571 106.238,299.460 106.238 L 272.212 106.238 272.212 95.625 C 272.212 82.787,272.802 83.932,266.190 83.932 L 261.248 83.932 261.248 73.197 C 261.248 63.758,261.176 62.435,260.650 62.233 C 260.321 62.107,257.769 62.004,254.979 62.004 L 249.905 62.004 249.905 51.391 C 249.905 38.552,250.495 39.698,243.883 39.698 L 238.941 39.698 238.941 29.085 C 238.941 16.246,239.531 17.391,232.919 17.391 L 227.977 17.391 227.977 8.696 L 227.977 0.000 200.378 0.000 L 172.779 0.000 172.779 8.696 M206.427 82.767 C 206.427 95.911,205.750 94.518,212.139 94.518 L 217.391 94.518 217.391 105.131 C 217.391 117.969,216.801 116.824,223.413 116.824 L 228.355 116.824 228.355 127.437 C 228.355 140.299,227.735 139.130,234.567 139.130 L 239.698 139.130 239.698 144.072 C 239.698 150.684,238.554 150.095,251.380 150.095 L 261.983 150.095 262.088 155.482 L 262.193 160.870 300.851 160.966 C 326.184 161.029,339.509 161.192,339.509 161.438 C 339.509 161.669,337.594 161.815,334.567 161.815 C 328.219 161.815,328.544 161.479,328.544 168.026 L 328.544 173.157 323.413 173.157 C 316.867 173.157,317.202 172.832,317.202 179.179 L 317.202 184.121 312.260 184.121 C 305.914 184.121,306.238 183.787,306.238 190.322 L 306.238 195.442 300.851 195.547 L 295.463 195.652 295.358 201.040 L 295.253 206.427 290.133 206.427 C 283.598 206.427,283.932 206.103,283.932 212.449 L 283.932 217.391 278.990 217.391 C 275.211 217.391,273.921 217.518,273.508 217.931 C 272.696 218.744,272.696 304.508,273.508 305.320 C 273.921 305.733,275.211 305.860,278.990 305.860 L 283.932 305.860 283.932 311.720 L 283.932 317.580 278.072 317.580 L 272.212 317.580 272.212 312.328 C 272.212 305.939,273.605 306.616,260.461 306.616 L 249.905 306.616 249.905 301.485 C 249.905 294.658,251.046 295.274,238.401 295.274 L 227.977 295.274 227.977 290.332 C 227.977 286.553,227.850 285.263,227.437 284.850 C 226.627 284.040,174.129 284.040,173.319 284.850 C 172.906 285.263,172.779 286.553,172.779 290.332 L 172.779 295.274 162.044 295.274 C 152.604 295.274,151.282 295.346,151.080 295.872 C 150.954 296.201,150.851 298.753,150.851 301.543 L 150.851 306.616 140.296 306.616 C 127.151 306.616,128.544 305.939,128.544 312.328 L 128.544 317.580 122.684 317.580 L 116.824 317.580 116.824 311.720 L 116.824 305.860 121.766 305.860 C 125.545 305.860,126.835 305.733,127.248 305.320 C 128.061 304.508,128.061 218.744,127.248 217.931 C 126.835 217.518,125.545 217.391,121.766 217.391 L 116.824 217.391 116.824 212.449 C 116.824 206.102,117.159 206.427,110.613 206.427 L 105.482 206.427 105.482 201.175 C 105.482 194.942,106.036 195.463,99.402 195.463 L 94.518 195.463 94.518 190.332 C 94.518 183.768,94.871 184.121,88.307 184.121 L 83.176 184.121 83.176 179.237 C 83.176 172.603,83.697 173.157,77.464 173.157 L 72.212 173.157 72.212 168.026 C 72.212 161.479,72.537 161.815,66.190 161.815 C 63.163 161.815,61.248 161.669,61.248 161.438 C 61.248 161.192,74.572 161.029,99.905 160.966 L 138.563 160.870 138.668 155.482 L 138.773 150.095 149.376 150.095 C 162.202 150.095,161.059 150.684,161.059 144.072 L 161.059 139.130 166.190 139.130 C 173.022 139.130,172.401 140.299,172.401 127.437 L 172.401 116.824 177.343 116.824 C 183.955 116.824,183.365 117.969,183.365 105.131 L 183.365 94.518 188.307 94.518 C 194.919 94.518,194.329 95.663,194.329 82.825 L 194.329 72.212 200.378 72.212 L 206.427 72.212 206.427 82.767 " stroke="none" fill="#ffffff" fill-rule="evenodd"></path><path id="path1" d="M172.779 8.696 L 172.779 17.391 167.837 17.391 C 161.225 17.391,161.815 16.246,161.815 29.085 L 161.815 39.698 156.562 39.698 C 150.173 39.698,150.851 38.304,150.851 51.449 L 150.851 62.004 145.778 62.004 C 142.987 62.004,140.435 62.107,140.107 62.233 C 139.581 62.435,139.509 63.758,139.509 73.197 L 139.509 83.932 134.567 83.932 C 127.955 83.932,128.544 82.787,128.544 95.625 L 128.544 106.238 101.296 106.238 C 78.185 106.238,73.966 106.320,73.508 106.778 C 73.093 107.193,72.968 108.506,72.968 112.447 L 72.968 117.576 39.792 117.673 L 6.616 117.769 6.511 123.157 L 6.406 128.544 3.203 128.544 L 0.000 128.544 0.000 150.473 L 0.000 172.401 3.214 172.401 L 6.427 172.401 6.427 177.285 C 6.427 183.919,5.906 183.365,12.139 183.365 L 17.391 183.365 17.391 188.496 C 17.391 195.042,17.066 194.707,23.413 194.707 L 28.355 194.707 28.355 199.649 C 28.355 205.996,28.020 205.671,34.567 205.671 L 39.698 205.671 39.698 210.802 C 39.698 217.348,39.372 217.013,45.720 217.013 L 50.662 217.013 50.662 221.955 C 50.662 228.285,50.354 227.977,56.684 227.977 L 61.626 227.977 61.626 233.230 C 61.626 239.472,61.044 238.941,67.895 238.941 L 72.968 238.941 72.968 244.072 C 72.968 250.619,72.643 250.284,78.990 250.284 C 82.033 250.284,83.932 250.429,83.932 250.662 C 83.932 250.894,82.052 251.040,79.048 251.040 C 76.362 251.040,73.895 251.143,73.566 251.269 C 73.027 251.476,72.968 254.759,72.968 284.540 L 72.968 317.580 67.837 317.580 C 63.894 317.580,62.581 317.705,62.166 318.120 C 61.707 318.579,61.626 323.125,61.626 348.366 L 61.626 378.072 89.225 378.072 L 116.824 378.072 116.824 375.236 L 116.824 372.401 127.559 372.401 C 136.999 372.401,138.321 372.329,138.523 371.803 C 138.649 371.474,138.752 369.007,138.752 366.321 L 138.752 361.437 149.365 361.437 C 162.227 361.437,161.059 362.057,161.059 355.225 L 161.059 350.095 171.614 350.095 C 184.758 350.095,183.365 350.772,183.365 344.383 L 183.365 339.130 200.378 339.130 L 217.391 339.130 217.391 344.383 C 217.391 350.772,215.998 350.095,229.142 350.095 L 239.698 350.095 239.698 355.225 C 239.698 362.057,238.529 361.437,251.391 361.437 L 262.004 361.437 262.004 366.321 C 262.004 369.007,262.107 371.474,262.233 371.803 C 262.435 372.329,263.758 372.401,273.197 372.401 L 283.932 372.401 283.932 375.236 L 283.932 378.072 311.342 378.072 L 338.752 378.072 338.752 348.424 C 338.752 332.118,338.649 318.507,338.523 318.178 C 338.329 317.673,337.482 317.580,333.041 317.580 L 327.788 317.580 327.788 284.540 C 327.788 254.759,327.729 251.476,327.190 251.269 C 326.861 251.143,324.394 251.040,321.708 251.040 C 318.704 251.040,316.824 250.894,316.824 250.662 C 316.824 250.429,318.724 250.284,321.766 250.284 C 328.112 250.284,327.788 250.617,327.788 244.083 L 327.788 238.962 333.176 238.857 L 338.563 238.752 338.668 233.365 L 338.773 227.977 343.894 227.977 C 350.428 227.977,350.095 228.301,350.095 221.955 L 350.095 217.013 355.036 217.013 C 361.384 217.013,361.059 217.348,361.059 210.802 L 361.059 205.671 366.190 205.671 C 372.736 205.671,372.401 205.996,372.401 199.649 L 372.401 194.707 377.343 194.707 C 383.690 194.707,383.365 195.042,383.365 188.496 L 383.365 183.365 388.307 183.365 C 394.637 183.365,394.329 183.673,394.329 177.343 L 394.329 172.401 397.164 172.401 L 400.000 172.401 400.000 150.473 L 400.000 128.544 397.164 128.544 L 394.329 128.544 394.329 123.292 C 394.329 118.851,394.237 118.004,393.731 117.810 C 393.402 117.684,378.430 117.580,360.461 117.580 L 327.788 117.580 327.788 112.449 C 327.788 108.507,327.663 107.193,327.248 106.778 C 326.790 106.320,322.571 106.238,299.460 106.238 L 272.212 106.238 272.212 95.625 C 272.212 82.787,272.802 83.932,266.190 83.932 L 261.248 83.932 261.248 73.197 C 261.248 63.758,261.176 62.435,260.650 62.233 C 260.321 62.107,257.769 62.004,254.979 62.004 L 249.905 62.004 249.905 51.391 C 249.905 38.552,250.495 39.698,243.883 39.698 L 238.941 39.698 238.941 29.085 C 238.941 16.246,239.531 17.391,232.919 17.391 L 227.977 17.391 227.977 8.696 L 227.977 0.000 200.378 0.000 L 172.779 0.000 172.779 8.696 M206.427 82.767 C 206.427 95.911,205.750 94.518,212.139 94.518 L 217.391 94.518 217.391 105.131 C 217.391 117.969,216.801 116.824,223.413 116.824 L 228.355 116.824 228.355 127.437 C 228.355 140.299,227.735 139.130,234.567 139.130 L 239.698 139.130 239.698 144.072 C 239.698 150.684,238.554 150.095,251.380 150.095 L 261.983 150.095 262.088 155.482 L 262.193 160.870 300.851 160.966 C 326.184 161.029,339.509 161.192,339.509 161.438 C 339.509 161.669,337.594 161.815,334.567 161.815 C 328.219 161.815,328.544 161.479,328.544 168.026 L 328.544 173.157 323.413 173.157 C 316.867 173.157,317.202 172.832,317.202 179.179 L 317.202 184.121 312.260 184.121 C 305.914 184.121,306.238 183.787,306.238 190.322 L 306.238 195.442 300.851 195.547 L 295.463 195.652 295.358 201.040 L 295.253 206.427 290.133 206.427 C 283.598 206.427,283.932 206.103,283.932 212.449 L 283.932 217.391 278.990 217.391 C 275.211 217.391,273.921 217.518,273.508 217.931 C 272.696 218.744,272.696 304.508,273.508 305.320 C 273.921 305.733,275.211 305.860,278.990 305.860 L 283.932 305.860 283.932 311.720 L 283.932 317.580 278.072 317.580 L 272.212 317.580 272.212 312.328 C 272.212 305.939,273.605 306.616,260.461 306.616 L 249.905 306.616 249.905 301.485 C 249.905 294.658,251.046 295.274,238.401 295.274 L 227.977 295.274 227.977 290.332 C 227.977 286.553,227.850 285.263,227.437 284.850 C 226.627 284.040,174.129 284.040,173.319 284.850 C 172.906 285.263,172.779 286.553,172.779 290.332 L 172.779 295.274 162.044 295.274 C 152.604 295.274,151.282 295.346,151.080 295.872 C 150.954 296.201,150.851 298.753,150.851 301.543 L 150.851 306.616 140.296 306.616 C 127.151 306.616,128.544 305.939,128.544 312.328 L 128.544 317.580 122.684 317.580 L 116.824 317.580 116.824 311.720 L 116.824 305.860 121.766 305.860 C 125.545 305.860,126.835 305.733,127.248 305.320 C 128.061 304.508,128.061 218.744,127.248 217.931 C 126.835 217.518,125.545 217.391,121.766 217.391 L 116.824 217.391 116.824 212.449 C 116.824 206.102,117.159 206.427,110.613 206.427 L 105.482 206.427 105.482 201.175 C 105.482 194.942,106.036 195.463,99.402 195.463 L 94.518 195.463 94.518 190.332 C 94.518 183.768,94.871 184.121,88.307 184.121 L 83.176 184.121 83.176 179.237 C 83.176 172.603,83.697 173.157,77.464 173.157 L 72.212 173.157 72.212 168.026 C 72.212 161.479,72.537 161.815,66.190 161.815 C 63.163 161.815,61.248 161.669,61.248 161.438 C 61.248 161.192,74.572 161.029,99.905 160.966 L 138.563 160.870 138.668 155.482 L 138.773 150.095 149.376 150.095 C 162.202 150.095,161.059 150.684,161.059 144.072 L 161.059 139.130 166.190 139.130 C 173.022 139.130,172.401 140.299,172.401 127.437 L 172.401 116.824 177.343 116.824 C 183.955 116.824,183.365 117.969,183.365 105.131 L 183.365 94.518 188.307 94.518 C 194.919 94.518,194.329 95.663,194.329 82.825 L 194.329 72.212 200.378 72.212 L 206.427 72.212 206.427 82.767 " stroke="none" fill="#ffffff" fill-rule="evenodd"></path><path id="path2" d="M172.779 8.696 L 172.779 17.391 167.837 17.391 C 161.225 17.391,161.815 16.246,161.815 29.085 L 161.815 39.698 156.562 39.698 C 150.173 39.698,150.851 38.304,150.851 51.449 L 150.851 62.004 145.778 62.004 C 142.987 62.004,140.435 62.107,140.107 62.233 C 139.581 62.435,139.509 63.758,139.509 73.197 L 139.509 83.932 134.567 83.932 C 127.955 83.932,128.544 82.787,128.544 95.625 L 128.544 106.238 101.296 106.238 C 78.185 106.238,73.966 106.320,73.508 106.778 C 73.093 107.193,72.968 108.506,72.968 112.447 L 72.968 117.576 39.792 117.673 L 6.616 117.769 6.511 123.157 L 6.406 128.544 3.203 128.544 L 0.000 128.544 0.000 150.473 L 0.000 172.401 3.214 172.401 L 6.427 172.401 6.427 177.285 C 6.427 183.919,5.906 183.365,12.139 183.365 L 17.391 183.365 17.391 188.496 C 17.391 195.042,17.066 194.707,23.413 194.707 L 28.355 194.707 28.355 199.649 C 28.355 205.996,28.020 205.671,34.567 205.671 L 39.698 205.671 39.698 210.802 C 39.698 217.348,39.372 217.013,45.720 217.013 L 50.662 217.013 50.662 221.955 C 50.662 228.285,50.354 227.977,56.684 227.977 L 61.626 227.977 61.626 233.230 C 61.626 239.472,61.044 238.941,67.895 238.941 L 72.968 238.941 72.968 244.072 C 72.968 250.619,72.643 250.284,78.990 250.284 C 82.033 250.284,83.932 250.429,83.932 250.662 C 83.932 250.894,82.052 251.040,79.048 251.040 C 76.362 251.040,73.895 251.143,73.566 251.269 C 73.027 251.476,72.968 254.759,72.968 284.540 L 72.968 317.580 67.837 317.580 C 63.894 317.580,62.581 317.705,62.166 318.120 C 61.707 318.579,61.626 323.125,61.626 348.366 L 61.626 378.072 89.225 378.072 L 116.824 378.072 116.824 375.236 L 116.824 372.401 127.559 372.401 C 136.999 372.401,138.321 372.329,138.523 371.803 C 138.649 371.474,138.752 369.007,138.752 366.321 L 138.752 361.437 149.365 361.437 C 162.227 361.437,161.059 362.057,161.059 355.225 L 161.059 350.095 171.614 350.095 C 184.758 350.095,183.365 350.772,183.365 344.383 L 183.365 339.130 200.378 339.130 L 217.391 339.130 217.391 344.383 C 217.391 350.772,215.998 350.095,229.142 350.095 L 239.698 350.095 239.698 355.225 C 239.698 362.057,238.529 361.437,251.391 361.437 L 262.004 361.437 262.004 366.321 C 262.004 369.007,262.107 371.474,262.233 371.803 C 262.435 372.329,263.758 372.401,273.197 372.401 L 283.932 372.401 283.932 375.236 L 283.932 378.072 311.342 378.072 L 338.752 378.072 338.752 348.424 C 338.752 332.118,338.649 318.507,338.523 318.178 C 338.329 317.673,337.482 317.580,333.041 317.580 L 327.788 317.580 327.788 284.540 C 327.788 254.759,327.729 251.476,327.190 251.269 C 326.861 251.143,324.394 251.040,321.708 251.040 C 318.704 251.040,316.824 250.894,316.824 250.662 C 316.824 250.429,318.724 250.284,321.766 250.284 C 328.112 250.284,327.788 250.617,327.788 244.083 L 327.788 238.962 333.176 238.857 L 338.563 238.752 338.668 233.365 L 338.773 227.977 343.894 227.977 C 350.428 227.977,350.095 228.301,350.095 221.955 L 350.095 217.013 355.036 217.013 C 361.384 217.013,361.059 217.348,361.059 210.802 L 361.059 205.671 366.190 205.671 C 372.736 205.671,372.401 205.996,372.401 199.649 L 372.401 194.707 377.343 194.707 C 383.690 194.707,383.365 195.042,383.365 188.496 L 383.365 183.365 388.307 183.365 C 394.637 183.365,394.329 183.673,394.329 177.343 L 394.329 172.401 397.164 172.401 L 400.000 172.401 400.000 150.473 L 400.000 128.544 397.164 128.544 L 394.329 128.544 394.329 123.292 C 394.329 118.851,394.237 118.004,393.731 117.810 C 393.402 117.684,378.430 117.580,360.461 117.580 L 327.788 117.580 327.788 112.449 C 327.788 108.507,327.663 107.193,327.248 106.778 C 326.790 106.320,322.571 106.238,299.460 106.238 L 272.212 106.238 272.212 95.625 C 272.212 82.787,272.802 83.932,266.190 83.932 L 261.248 83.932 261.248 73.197 C 261.248 63.758,261.176 62.435,260.650 62.233 C 260.321 62.107,257.769 62.004,254.979 62.004 L 249.905 62.004 249.905 51.391 C 249.905 38.552,250.495 39.698,243.883 39.698 L 238.941 39.698 238.941 29.085 C 238.941 16.246,239.531 17.391,232.919 17.391 L 227.977 17.391 227.977 8.696 L 227.977 0.000 200.378 0.000 L 172.779 0.000 172.779 8.696 M206.427 82.767 C 206.427 95.911,205.750 94.518,212.139 94.518 L 217.391 94.518 217.391 105.131 C 217.391 117.969,216.801 116.824,223.413 116.824 L 228.355 116.824 228.355 127.437 C 228.355 140.299,227.735 139.130,234.567 139.130 L 239.698 139.130 239.698 144.072 C 239.698 150.684,238.554 150.095,251.380 150.095 L 261.983 150.095 262.088 155.482 L 262.193 160.870 300.851 160.966 C 326.184 161.029,339.509 161.192,339.509 161.438 C 339.509 161.669,337.594 161.815,334.567 161.815 C 328.219 161.815,328.544 161.479,328.544 168.026 L 328.544 173.157 323.413 173.157 C 316.867 173.157,317.202 172.832,317.202 179.179 L 317.202 184.121 312.260 184.121 C 305.914 184.121,306.238 183.787,306.238 190.322 L 306.238 195.442 300.851 195.547 L 295.463 195.652 295.358 201.040 L 295.253 206.427 290.133 206.427 C 283.598 206.427,283.932 206.103,283.932 212.449 L 283.932 217.391 278.990 217.391 C 275.211 217.391,273.921 217.518,273.508 217.931 C 272.696 218.744,272.696 304.508,273.508 305.320 C 273.921 305.733,275.211 305.860,278.990 305.860 L 283.932 305.860 283.932 311.720 L 283.932 317.580 278.072 317.580 L 272.212 317.580 272.212 312.328 C 272.212 305.939,273.605 306.616,260.461 306.616 L 249.905 306.616 249.905 301.485 C 249.905 294.658,251.046 295.274,238.401 295.274 L 227.977 295.274 227.977 290.332 C 227.977 286.553,227.850 285.263,227.437 284.850 C 226.627 284.040,174.129 284.040,173.319 284.850 C 172.906 285.263,172.779 286.553,172.779 290.332 L 172.779 295.274 162.044 295.274 C 152.604 295.274,151.282 295.346,151.080 295.872 C 150.954 296.201,150.851 298.753,150.851 301.543 L 150.851 306.616 140.296 306.616 C 127.151 306.616,128.544 305.939,128.544 312.328 L 128.544 317.580 122.684 317.580 L 116.824 317.580 116.824 311.720 L 116.824 305.860 121.766 305.860 C 125.545 305.860,126.835 305.733,127.248 305.320 C 128.061 304.508,128.061 218.744,127.248 217.931 C 126.835 217.518,125.545 217.391,121.766 217.391 L 116.824 217.391 116.824 212.449 C 116.824 206.102,117.159 206.427,110.613 206.427 L 105.482 206.427 105.482 201.175 C 105.482 194.942,106.036 195.463,99.402 195.463 L 94.518 195.463 94.518 190.332 C 94.518 183.768,94.871 184.121,88.307 184.121 L 83.176 184.121 83.176 179.237 C 83.176 172.603,83.697 173.157,77.464 173.157 L 72.212 173.157 72.212 168.026 C 72.212 161.479,72.537 161.815,66.190 161.815 C 63.163 161.815,61.248 161.669,61.248 161.438 C 61.248 161.192,74.572 161.029,99.905 160.966 L 138.563 160.870 138.668 155.482 L 138.773 150.095 149.376 150.095 C 162.202 150.095,161.059 150.684,161.059 144.072 L 161.059 139.130 166.190 139.130 C 173.022 139.130,172.401 140.299,172.401 127.437 L 172.401 116.824 177.343 116.824 C 183.955 116.824,183.365 117.969,183.365 105.131 L 183.365 94.518 188.307 94.518 C 194.919 94.518,194.329 95.663,194.329 82.825 L 194.329 72.212 200.378 72.212 L 206.427 72.212 206.427 82.767 " stroke="none" fill="#ffffff" fill-rule="evenodd"></path><path id="path3" d="M172.779 8.696 L 172.779 17.391 167.837 17.391 C 161.225 17.391,161.815 16.246,161.815 29.085 L 161.815 39.698 156.562 39.698 C 150.173 39.698,150.851 38.304,150.851 51.449 L 150.851 62.004 145.778 62.004 C 142.987 62.004,140.435 62.107,140.107 62.233 C 139.581 62.435,139.509 63.758,139.509 73.197 L 139.509 83.932 134.567 83.932 C 127.955 83.932,128.544 82.787,128.544 95.625 L 128.544 106.238 101.296 106.238 C 78.185 106.238,73.966 106.320,73.508 106.778 C 73.093 107.193,72.968 108.506,72.968 112.447 L 72.968 117.576 39.792 117.673 L 6.616 117.769 6.511 123.157 L 6.406 128.544 3.203 128.544 L 0.000 128.544 0.000 150.473 L 0.000 172.401 3.214 172.401 L 6.427 172.401 6.427 177.285 C 6.427 183.919,5.906 183.365,12.139 183.365 L 17.391 183.365 17.391 188.496 C 17.391 195.042,17.066 194.707,23.413 194.707 L 28.355 194.707 28.355 199.649 C 28.355 205.996,28.020 205.671,34.567 205.671 L 39.698 205.671 39.698 210.802 C 39.698 217.348,39.372 217.013,45.720 217.013 L 50.662 217.013 50.662 221.955 C 50.662 228.285,50.354 227.977,56.684 227.977 L 61.626 227.977 61.626 233.230 C 61.626 239.472,61.044 238.941,67.895 238.941 L 72.968 238.941 72.968 244.072 C 72.968 250.619,72.643 250.284,78.990 250.284 C 82.033 250.284,83.932 250.429,83.932 250.662 C 83.932 250.894,82.052 251.040,79.048 251.040 C 76.362 251.040,73.895 251.143,73.566 251.269 C 73.027 251.476,72.968 254.759,72.968 284.540 L 72.968 317.580 67.837 317.580 C 63.894 317.580,62.581 317.705,62.166 318.120 C 61.707 318.579,61.626 323.125,61.626 348.366 L 61.626 378.072 89.225 378.072 L 116.824 378.072 116.824 375.236 L 116.824 372.401 127.559 372.401 C 136.999 372.401,138.321 372.329,138.523 371.803 C 138.649 371.474,138.752 369.007,138.752 366.321 L 138.752 361.437 149.365 361.437 C 162.227 361.437,161.059 362.057,161.059 355.225 L 161.059 350.095 171.614 350.095 C 184.758 350.095,183.365 350.772,183.365 344.383 L 183.365 339.130 200.378 339.130 L 217.391 339.130 217.391 344.383 C 217.391 350.772,215.998 350.095,229.142 350.095 L 239.698 350.095 239.698 355.225 C 239.698 362.057,238.529 361.437,251.391 361.437 L 262.004 361.437 262.004 366.321 C 262.004 369.007,262.107 371.474,262.233 371.803 C 262.435 372.329,263.758 372.401,273.197 372.401 L 283.932 372.401 283.932 375.236 L 283.932 378.072 311.342 378.072 L 338.752 378.072 338.752 348.424 C 338.752 332.118,338.649 318.507,338.523 318.178 C 338.329 317.673,337.482 317.580,333.041 317.580 L 327.788 317.580 327.788 284.540 C 327.788 254.759,327.729 251.476,327.190 251.269 C 326.861 251.143,324.394 251.040,321.708 251.040 C 318.704 251.040,316.824 250.894,316.824 250.662 C 316.824 250.429,318.724 250.284,321.766 250.284 C 328.112 250.284,327.788 250.617,327.788 244.083 L 327.788 238.962 333.176 238.857 L 338.563 238.752 338.668 233.365 L 338.773 227.977 343.894 227.977 C 350.428 227.977,350.095 228.301,350.095 221.955 L 350.095 217.013 355.036 217.013 C 361.384 217.013,361.059 217.348,361.059 210.802 L 361.059 205.671 366.190 205.671 C 372.736 205.671,372.401 205.996,372.401 199.649 L 372.401 194.707 377.343 194.707 C 383.690 194.707,383.365 195.042,383.365 188.496 L 383.365 183.365 388.307 183.365 C 394.637 183.365,394.329 183.673,394.329 177.343 L 394.329 172.401 397.164 172.401 L 400.000 172.401 400.000 150.473 L 400.000 128.544 397.164 128.544 L 394.329 128.544 394.329 123.292 C 394.329 118.851,394.237 118.004,393.731 117.810 C 393.402 117.684,378.430 117.580,360.461 117.580 L 327.788 117.580 327.788 112.449 C 327.788 108.507,327.663 107.193,327.248 106.778 C 326.790 106.320,322.571 106.238,299.460 106.238 L 272.212 106.238 272.212 95.625 C 272.212 82.787,272.802 83.932,266.190 83.932 L 261.248 83.932 261.248 73.197 C 261.248 63.758,261.176 62.435,260.650 62.233 C 260.321 62.107,257.769 62.004,254.979 62.004 L 249.905 62.004 249.905 51.391 C 249.905 38.552,250.495 39.698,243.883 39.698 L 238.941 39.698 238.941 29.085 C 238.941 16.246,239.531 17.391,232.919 17.391 L 227.977 17.391 227.977 8.696 L 227.977 0.000 200.378 0.000 L 172.779 0.000 172.779 8.696 M206.427 82.767 C 206.427 95.911,205.750 94.518,212.139 94.518 L 217.391 94.518 217.391 105.131 C 217.391 117.969,216.801 116.824,223.413 116.824 L 228.355 116.824 228.355 127.437 C 228.355 140.299,227.735 139.130,234.567 139.130 L 239.698 139.130 239.698 144.072 C 239.698 150.684,238.554 150.095,251.380 150.095 L 261.983 150.095 262.088 155.482 L 262.193 160.870 300.851 160.966 C 326.184 161.029,339.509 161.192,339.509 161.438 C 339.509 161.669,337.594 161.815,334.567 161.815 C 328.219 161.815,328.544 161.479,328.544 168.026 L 328.544 173.157 323.413 173.157 C 316.867 173.157,317.202 172.832,317.202 179.179 L 317.202 184.121 312.260 184.121 C 305.914 184.121,306.238 183.787,306.238 190.322 L 306.238 195.442 300.851 195.547 L 295.463 195.652 295.358 201.040 L 295.253 206.427 290.133 206.427 C 283.598 206.427,283.932 206.103,283.932 212.449 L 283.932 217.391 278.990 217.391 C 275.211 217.391,273.921 217.518,273.508 217.931 C 272.696 218.744,272.696 304.508,273.508 305.320 C 273.921 305.733,275.211 305.860,278.990 305.860 L 283.932 305.860 283.932 311.720 L 283.932 317.580 278.072 317.580 L 272.212 317.580 272.212 312.328 C 272.212 305.939,273.605 306.616,260.461 306.616 L 249.905 306.616 249.905 301.485 C 249.905 294.658,251.046 295.274,238.401 295.274 L 227.977 295.274 227.977 290.332 C 227.977 286.553,227.850 285.263,227.437 284.850 C 226.627 284.040,174.129 284.040,173.319 284.850 C 172.906 285.263,172.779 286.553,172.779 290.332 L 172.779 295.274 162.044 295.274 C 152.604 295.274,151.282 295.346,151.080 295.872 C 150.954 296.201,150.851 298.753,150.851 301.543 L 150.851 306.616 140.296 306.616 C 127.151 306.616,128.544 305.939,128.544 312.328 L 128.544 317.580 122.684 317.580 L 116.824 317.580 116.824 311.720 L 116.824 305.860 121.766 305.860 C 125.545 305.860,126.835 305.733,127.248 305.320 C 128.061 304.508,128.061 218.744,127.248 217.931 C 126.835 217.518,125.545 217.391,121.766 217.391 L 116.824 217.391 116.824 212.449 C 116.824 206.102,117.159 206.427,110.613 206.427 L 105.482 206.427 105.482 201.175 C 105.482 194.942,106.036 195.463,99.402 195.463 L 94.518 195.463 94.518 190.332 C 94.518 183.768,94.871 184.121,88.307 184.121 L 83.176 184.121 83.176 179.237 C 83.176 172.603,83.697 173.157,77.464 173.157 L 72.212 173.157 72.212 168.026 C 72.212 161.479,72.537 161.815,66.190 161.815 C 63.163 161.815,61.248 161.669,61.248 161.438 C 61.248 161.192,74.572 161.029,99.905 160.966 L 138.563 160.870 138.668 155.482 L 138.773 150.095 149.376 150.095 C 162.202 150.095,161.059 150.684,161.059 144.072 L 161.059 139.130 166.190 139.130 C 173.022 139.130,172.401 140.299,172.401 127.437 L 172.401 116.824 177.343 116.824 C 183.955 116.824,183.365 117.969,183.365 105.131 L 183.365 94.518 188.307 94.518 C 194.919 94.518,194.329 95.663,194.329 82.825 L 194.329 72.212 200.378 72.212 L 206.427 72.212 206.427 82.767 " stroke="none" fill="#ffffff" fill-rule="evenodd"></path><path id="path4" d="M172.779 8.696 L 172.779 17.391 167.837 17.391 C 161.225 17.391,161.815 16.246,161.815 29.085 L 161.815 39.698 156.562 39.698 C 150.173 39.698,150.851 38.304,150.851 51.449 L 150.851 62.004 145.778 62.004 C 142.987 62.004,140.435 62.107,140.107 62.233 C 139.581 62.435,139.509 63.758,139.509 73.197 L 139.509 83.932 134.567 83.932 C 127.955 83.932,128.544 82.787,128.544 95.625 L 128.544 106.238 101.296 106.238 C 78.185 106.238,73.966 106.320,73.508 106.778 C 73.093 107.193,72.968 108.506,72.968 112.447 L 72.968 117.576 39.792 117.673 L 6.616 117.769 6.511 123.157 L 6.406 128.544 3.203 128.544 L 0.000 128.544 0.000 150.473 L 0.000 172.401 3.214 172.401 L 6.427 172.401 6.427 177.285 C 6.427 183.919,5.906 183.365,12.139 183.365 L 17.391 183.365 17.391 188.496 C 17.391 195.042,17.066 194.707,23.413 194.707 L 28.355 194.707 28.355 199.649 C 28.355 205.996,28.020 205.671,34.567 205.671 L 39.698 205.671 39.698 210.802 C 39.698 217.348,39.372 217.013,45.720 217.013 L 50.662 217.013 50.662 221.955 C 50.662 228.285,50.354 227.977,56.684 227.977 L 61.626 227.977 61.626 233.230 C 61.626 239.472,61.044 238.941,67.895 238.941 L 72.968 238.941 72.968 244.072 C 72.968 250.619,72.643 250.284,78.990 250.284 C 82.033 250.284,83.932 250.429,83.932 250.662 C 83.932 250.894,82.052 251.040,79.048 251.040 C 76.362 251.040,73.895 251.143,73.566 251.269 C 73.027 251.476,72.968 254.759,72.968 284.540 L 72.968 317.580 67.837 317.580 C 63.894 317.580,62.581 317.705,62.166 318.120 C 61.707 318.579,61.626 323.125,61.626 348.366 L 61.626 378.072 89.225 378.072 L 116.824 378.072 116.824 375.236 L 116.824 372.401 127.559 372.401 C 136.999 372.401,138.321 372.329,138.523 371.803 C 138.649 371.474,138.752 369.007,138.752 366.321 L 138.752 361.437 149.365 361.437 C 162.227 361.437,161.059 362.057,161.059 355.225 L 161.059 350.095 171.614 350.095 C 184.758 350.095,183.365 350.772,183.365 344.383 L 183.365 339.130 200.378 339.130 L 217.391 339.130 217.391 344.383 C 217.391 350.772,215.998 350.095,229.142 350.095 L 239.698 350.095 239.698 355.225 C 239.698 362.057,238.529 361.437,251.391 361.437 L 262.004 361.437 262.004 366.321 C 262.004 369.007,262.107 371.474,262.233 371.803 C 262.435 372.329,263.758 372.401,273.197 372.401 L 283.932 372.401 283.932 375.236 L 283.932 378.072 311.342 378.072 L 338.752 378.072 338.752 348.424 C 338.752 332.118,338.649 318.507,338.523 318.178 C 338.329 317.673,337.482 317.580,333.041 317.580 L 327.788 317.580 327.788 284.540 C 327.788 254.759,327.729 251.476,327.190 251.269 C 326.861 251.143,324.394 251.040,321.708 251.040 C 318.704 251.040,316.824 250.894,316.824 250.662 C 316.824 250.429,318.724 250.284,321.766 250.284 C 328.112 250.284,327.788 250.617,327.788 244.083 L 327.788 238.962 333.176 238.857 L 338.563 238.752 338.668 233.365 L 338.773 227.977 343.894 227.977 C 350.428 227.977,350.095 228.301,350.095 221.955 L 350.095 217.013 355.036 217.013 C 361.384 217.013,361.059 217.348,361.059 210.802 L 361.059 205.671 366.190 205.671 C 372.736 205.671,372.401 205.996,372.401 199.649 L 372.401 194.707 377.343 194.707 C 383.690 194.707,383.365 195.042,383.365 188.496 L 383.365 183.365 388.307 183.365 C 394.637 183.365,394.329 183.673,394.329 177.343 L 394.329 172.401 397.164 172.401 L 400.000 172.401 400.000 150.473 L 400.000 128.544 397.164 128.544 L 394.329 128.544 394.329 123.292 C 394.329 118.851,394.237 118.004,393.731 117.810 C 393.402 117.684,378.430 117.580,360.461 117.580 L 327.788 117.580 327.788 112.449 C 327.788 108.507,327.663 107.193,327.248 106.778 C 326.790 106.320,322.571 106.238,299.460 106.238 L 272.212 106.238 272.212 95.625 C 272.212 82.787,272.802 83.932,266.190 83.932 L 261.248 83.932 261.248 73.197 C 261.248 63.758,261.176 62.435,260.650 62.233 C 260.321 62.107,257.769 62.004,254.979 62.004 L 249.905 62.004 249.905 51.391 C 249.905 38.552,250.495 39.698,243.883 39.698 L 238.941 39.698 238.941 29.085 C 238.941 16.246,239.531 17.391,232.919 17.391 L 227.977 17.391 227.977 8.696 L 227.977 0.000 200.378 0.000 L 172.779 0.000 172.779 8.696 M206.427 82.767 C 206.427 95.911,205.750 94.518,212.139 94.518 L 217.391 94.518 217.391 105.131 C 217.391 117.969,216.801 116.824,223.413 116.824 L 228.355 116.824 228.355 127.437 C 228.355 140.299,227.735 139.130,234.567 139.130 L 239.698 139.130 239.698 144.072 C 239.698 150.684,238.554 150.095,251.380 150.095 L 261.983 150.095 262.088 155.482 L 262.193 160.870 300.851 160.966 C 326.184 161.029,339.509 161.192,339.509 161.438 C 339.509 161.669,337.594 161.815,334.567 161.815 C 328.219 161.815,328.544 161.479,328.544 168.026 L 328.544 173.157 323.413 173.157 C 316.867 173.157,317.202 172.832,317.202 179.179 L 317.202 184.121 312.260 184.121 C 305.914 184.121,306.238 183.787,306.238 190.322 L 306.238 195.442 300.851 195.547 L 295.463 195.652 295.358 201.040 L 295.253 206.427 290.133 206.427 C 283.598 206.427,283.932 206.103,283.932 212.449 L 283.932 217.391 278.990 217.391 C 275.211 217.391,273.921 217.518,273.508 217.931 C 272.696 218.744,272.696 304.508,273.508 305.320 C 273.921 305.733,275.211 305.860,278.990 305.860 L 283.932 305.860 283.932 311.720 L 283.932 317.580 278.072 317.580 L 272.212 317.580 272.212 312.328 C 272.212 305.939,273.605 306.616,260.461 306.616 L 249.905 306.616 249.905 301.485 C 249.905 294.658,251.046 295.274,238.401 295.274 L 227.977 295.274 227.977 290.332 C 227.977 286.553,227.850 285.263,227.437 284.850 C 226.627 284.040,174.129 284.040,173.319 284.850 C 172.906 285.263,172.779 286.553,172.779 290.332 L 172.779 295.274 162.044 295.274 C 152.604 295.274,151.282 295.346,151.080 295.872 C 150.954 296.201,150.851 298.753,150.851 301.543 L 150.851 306.616 140.296 306.616 C 127.151 306.616,128.544 305.939,128.544 312.328 L 128.544 317.580 122.684 317.580 L 116.824 317.580 116.824 311.720 L 116.824 305.860 121.766 305.860 C 125.545 305.860,126.835 305.733,127.248 305.320 C 128.061 304.508,128.061 218.744,127.248 217.931 C 126.835 217.518,125.545 217.391,121.766 217.391 L 116.824 217.391 116.824 212.449 C 116.824 206.102,117.159 206.427,110.613 206.427 L 105.482 206.427 105.482 201.175 C 105.482 194.942,106.036 195.463,99.402 195.463 L 94.518 195.463 94.518 190.332 C 94.518 183.768,94.871 184.121,88.307 184.121 L 83.176 184.121 83.176 179.237 C 83.176 172.603,83.697 173.157,77.464 173.157 L 72.212 173.157 72.212 168.026 C 72.212 161.479,72.537 161.815,66.190 161.815 C 63.163 161.815,61.248 161.669,61.248 161.438 C 61.248 161.192,74.572 161.029,99.905 160.966 L 138.563 160.870 138.668 155.482 L 138.773 150.095 149.376 150.095 C 162.202 150.095,161.059 150.684,161.059 144.072 L 161.059 139.130 166.190 139.130 C 173.022 139.130,172.401 140.299,172.401 127.437 L 172.401 116.824 177.343 116.824 C 183.955 116.824,183.365 117.969,183.365 105.131 L 183.365 94.518 188.307 94.518 C 194.919 94.518,194.329 95.663,194.329 82.825 L 194.329 72.212 200.378 72.212 L 206.427 72.212 206.427 82.767 " stroke="none" fill="#ffffff" fill-rule="evenodd"></path></g></svg>